<?xml version="1.0" encoding="UTF-8"?>
<svg xmlns="http://www.w3.org/2000/svg" xmlns:xlink="http://www.w3.org/1999/xlink" viewBox="0 0 128 128" width="128px" height="128px">
<defs>
<linearGradient id="linear0" gradientUnits="userSpaceOnUse" x1="32" y1="4.667" x2="32" y2="59.661999" gradientTransform="matrix(2,0,0,2,0,0)">
<stop offset="0" style="stop-color:rgb(85.09804%,87.843138%,12.941177%);stop-opacity:1;"/>
<stop offset="1" style="stop-color:rgb(98.431373%,52.941179%,16.862746%);stop-opacity:1;"/>
</linearGradient>
<linearGradient id="linear1" gradientUnits="userSpaceOnUse" x1="44" y1="4.667" x2="44" y2="59.661999" gradientTransform="matrix(2,0,0,2,0,0)">
<stop offset="0" style="stop-color:rgb(85.09804%,87.843138%,12.941177%);stop-opacity:1;"/>
<stop offset="1" style="stop-color:rgb(98.431373%,52.941179%,16.862746%);stop-opacity:1;"/>
</linearGradient>
<linearGradient id="linear2" gradientUnits="userSpaceOnUse" x1="15" y1="4.667" x2="15" y2="59.661999" gradientTransform="matrix(2,0,0,2,0,0)">
<stop offset="0" style="stop-color:rgb(85.09804%,87.843138%,12.941177%);stop-opacity:1;"/>
<stop offset="1" style="stop-color:rgb(98.431373%,52.941179%,16.862746%);stop-opacity:1;"/>
</linearGradient>
<linearGradient id="linear3" gradientUnits="userSpaceOnUse" x1="21" y1="4.667" x2="21" y2="59.661999" gradientTransform="matrix(2,0,0,2,0,0)">
<stop offset="0" style="stop-color:rgb(85.09804%,87.843138%,12.941177%);stop-opacity:1;"/>
<stop offset="1" style="stop-color:rgb(98.431373%,52.941179%,16.862746%);stop-opacity:1;"/>
</linearGradient>
<linearGradient id="linear4" gradientUnits="userSpaceOnUse" x1="48.5" y1="45.938" x2="48.5" y2="53.115002" gradientTransform="matrix(2,0,0,2,0,0)">
<stop offset="0" style="stop-color:rgb(91.764706%,93.333334%,51.372552%);stop-opacity:1;"/>
<stop offset="1" style="stop-color:rgb(99.215686%,77.254903%,60.000002%);stop-opacity:1;"/>
</linearGradient>
</defs>
<g id="surface57121009">
<path style=" stroke:none;fill-rule:nonzero;fill:url(#linear0);" d="M 106 32 L 96 32 L 96 28 C 96 25.792969 94.207031 24 92 24 L 84 24 C 81.792969 24 80 25.792969 80 28 L 80 32 L 64 32 L 64 22 C 64 16.484375 59.515625 12 54 12 L 22 12 C 16.484375 12 12 16.484375 12 22 L 12 50 C 12 55.515625 16.484375 60 22 60 L 32 60 L 32 106 C 32 111.515625 36.484375 116 42 116 L 106 116 C 111.515625 116 116 111.515625 116 106 L 116 42 C 116 36.484375 111.515625 32 106 32 Z M 84 28 L 92 28 L 92 40 L 84 40 Z M 80 36 L 80 40 C 80 42.207031 81.792969 44 84 44 L 92 44 C 94.207031 44 96 42.207031 96 40 L 96 36 L 106 36 C 109.308594 36 112 38.691406 112 42 L 112 52 L 63.796875 52 C 63.929688 51.355469 64 50.683594 64 50 L 64 36 Z M 82 102 L 66 102 L 66 88 L 82 88 Z M 46 68 L 62 68 L 62 84 L 46 84 Z M 46 88 L 62 88 L 62 102 L 46 102 Z M 66 84 L 66 68 L 82 68 L 82 84 Z M 86 68 L 102 68 L 102 84 L 86 84 Z M 62 55.9375 L 62 56 L 102 56 L 102 64 L 46 64 L 46 60 L 54 60 C 57.28125 60 60.175781 58.386719 62 55.9375 Z M 16 50 L 16 22 C 16 18.691406 18.691406 16 22 16 L 54 16 C 57.308594 16 60 18.691406 60 22 L 60 50 C 60 53.308594 57.308594 56 54 56 L 22 56 C 18.691406 56 16 53.308594 16 50 Z M 106 112 L 42 112 C 38.691406 112 36 109.308594 36 106 L 36 60 L 42 60 L 42 106 L 86 106 L 86 88 L 106 88 L 106 56 L 112 56 L 112 106 C 112 109.308594 109.308594 112 106 112 Z M 106 112 "/>
<path style=" stroke:none;fill-rule:nonzero;fill:url(#linear1);" d="M 86 30 L 90 30 L 90 38 L 86 38 Z M 86 30 "/>
<path style=" stroke:none;fill-rule:nonzero;fill:url(#linear2);" d="M 28 24 L 32 24 L 32 48 L 28 48 Z M 28 24 "/>
<path style=" stroke:none;fill-rule:nonzero;fill:url(#linear3);" d="M 36 48 L 48 48 L 48 24 L 36 24 Z M 40 28 L 44 28 L 44 44 L 40 44 Z M 40 28 "/>
<path style=" stroke:none;fill-rule:nonzero;fill:url(#linear4);" d="M 90 106 L 90 94 C 90 92.894531 90.894531 92 92 92 L 104 92 Z M 90 106 "/>
</g>
</svg>
