<svg width="104" height="92" viewBox="0 0 104 92" fill="none" xmlns="http://www.w3.org/2000/svg">
<path d="M91.7305 62.6875C92.2227 61.7969 92.6484 60.8711 92.9844 59.8984C96.9297 59.4062 100 56.0742 100 52C100 48.25 97.3984 45.1211 93.9102 44.2578C93.0313 35.1484 85.3359 28 76 28C75.6172 28 75.2383 28.0312 74.8555 28.0547C75.5664 26.8633 76 25.4844 76 24C76 20.25 73.3984 17.1211 69.9102 16.2578C69.0313 7.14844 61.3359 0 52 0C42.6641 0 34.9687 7.14844 34.0898 16.2578C30.6016 17.1211 28 20.25 28 24C28 25.4844 28.4336 26.8633 29.1445 28.0547C28.7617 28.0312 28.3828 28 28 28C18.6641 28 10.9687 35.1484 10.0898 44.2578C6.60156 45.1211 4 48.25 4 52C4 56.0742 7.07031 59.4062 11.0156 59.8984C11.3516 60.8711 11.7617 61.8086 12.2539 62.6992C4.64844 67.8164 0 76.4336 0 85.6719V92H104V85.6719C104 76.4258 99.3437 67.8008 91.7305 62.6875ZM94 54V48.5547C95.1914 49.25 96 50.5273 96 52C96 53.5039 95.1563 54.8008 93.9258 55.4844C93.9648 54.9922 94 54.5039 94 54ZM8 52C8 50.5273 8.80859 49.25 10 48.5547V54C10 54.5039 10.0352 54.9922 10.0742 55.4844C8.84375 54.8008 8 53.5039 8 52ZM92.3477 68.3047C89.043 72.5352 83.8672 75.3008 78.1836 75.8711C77.6719 74.5312 77.0664 73.2305 76.3594 71.9844C81.5352 71.8828 86.1719 69.5898 89.3867 65.9883C90.4414 66.6914 91.4336 67.457 92.3477 68.3047ZM52 72C57.3203 72 62.0937 69.6719 65.3867 65.9883C66.4414 66.6875 67.4336 67.457 68.3477 68.3047C64.625 73.0703 58.5234 76 52 76C45.4766 76 39.375 73.0703 35.6523 68.3047C36.5664 67.457 37.5586 66.6914 38.6133 65.9883C41.9063 69.6719 46.6797 72 52 72ZM70 26V20.5547C71.1914 21.25 72 22.5273 72 24C72 25.5117 71.1445 26.8164 69.9062 27.4961C69.9453 26.9961 70 26.5039 70 26ZM67.7383 34.7148L67.75 34.7188C67.7539 34.7148 67.7578 34.707 67.7617 34.6992C70.1406 32.957 72.9922 32 76 32C83.7188 32 90 38.2812 90 46V54C90 61.7188 83.7188 68 76 68C75.1094 68 74.2305 67.8906 73.3672 67.7266C71.7422 65.8164 69.8555 64.1133 67.7305 62.6875C68.2227 61.7969 68.6484 60.8711 68.9844 59.8984C72.9297 59.4062 76 56.0742 76 52C76 48.25 73.3984 45.1211 69.9102 44.2578C69.6016 41.0469 68.4375 38.0898 66.6602 35.5938C67.0078 35.2812 67.3672 34.9883 67.7383 34.7148ZM69.9258 55.4844C69.9648 54.9922 70 54.5039 70 54V48.5547C71.1914 49.25 72 50.5273 72 52C72 53.5039 71.1563 54.8008 69.9258 55.4844ZM38 18C38 10.2812 44.2812 4 52 4C59.7188 4 66 10.2812 66 18V26C66 28.1172 65.4922 30.1992 64.5781 32.0859C64.3789 32.2539 64.1914 32.4414 63.9922 32.6172C60.8047 29.7578 56.6094 28 52 28C47.3906 28 43.1953 29.7578 40.0078 32.6172C39.8086 32.4414 39.6211 32.2539 39.418 32.0859C38.5039 30.1953 38 28.1133 38 26V18ZM38 46C38 38.2812 44.2812 32 52 32C59.7188 32 66 38.2812 66 46V54C66 61.7188 59.7188 68 52 68C44.2812 68 38 61.7188 38 54V46ZM34 20.5547V26C34 26.5039 34.0547 26.9961 34.0938 27.4961C32.8555 26.8164 32 25.5117 32 24C32 22.5273 32.8086 21.25 34 20.5547ZM14 46C14 38.2812 20.2812 32 28 32C31.0078 32 33.8594 32.957 36.2383 34.6992C36.2422 34.707 36.2461 34.7148 36.25 34.7188L36.2617 34.7148C36.6328 34.9883 36.9922 35.2812 37.3398 35.5938C35.5625 38.0898 34.3984 41.0469 34.0898 44.2578C30.6016 45.1211 28 48.25 28 52C28 56.0742 31.0703 59.4062 35.0156 59.8984C35.3516 60.8711 35.7773 61.8008 36.2695 62.6875C34.1445 64.1133 32.2578 65.8125 30.6328 67.7266C29.7695 67.8906 28.8906 68 28 68C20.2812 68 14 61.7188 14 54V46ZM34.0742 55.4844C32.8437 54.8008 32 53.5039 32 52C32 50.5273 32.8086 49.25 34 48.5547V54C34 54.5039 34.0352 54.9922 34.0742 55.4844ZM14.6133 65.9883C17.8359 69.5859 22.4688 71.8789 27.6445 71.9805C26.9336 73.2305 26.3242 74.5352 25.8164 75.8789C20.1367 75.3047 14.957 72.5352 11.6523 68.3047C12.5664 67.457 13.5586 66.6914 14.6133 65.9883ZM4 88V85.6719C4 80.3906 5.77734 75.3516 8.89453 71.2773C12.7227 75.8867 18.4219 78.9375 24.6523 79.7578C24.2305 81.6836 24 83.6602 24 85.6719V88H4ZM76 88H28V85.6719C28 80.4062 29.7695 75.3789 32.8711 71.3125C32.8828 71.3086 32.8984 71.3086 32.9141 71.3047C37.418 76.7148 44.4961 80 52 80C59.5039 80 66.5781 76.7148 71.0859 71.3047C71.1016 71.3086 71.1172 71.3125 71.1289 71.3164C74.2305 75.3828 76 80.4062 76 85.6719V88ZM100 88H80V85.6719C80 83.6641 79.7695 81.6875 79.3477 79.7695C85.5898 78.9531 91.2773 75.8867 95.1055 71.2773C98.2227 75.3516 100 80.3945 100 85.6719V88Z" fill="url(#paint0_linear_633_3)"/>
<defs>
<linearGradient id="paint0_linear_633_3" x1="52" y1="0.85" x2="52" y2="96.464" gradientUnits="userSpaceOnUse">
<stop stop-color="#D9E021"/>
<stop offset="1" stop-color="#FB872B"/>
</linearGradient>
</defs>
</svg>
