<?xml version="1.0" encoding="UTF-8"?>
<svg xmlns="http://www.w3.org/2000/svg" xmlns:xlink="http://www.w3.org/1999/xlink" viewBox="0 0 128 128" width="128px" height="128px">
<defs>
<linearGradient id="linear0" gradientUnits="userSpaceOnUse" x1="32" y1="22" x2="32" y2="41.178001" gradientTransform="matrix(2,0,0,2,0,0)">
<stop offset="0" style="stop-color:rgb(91.764706%,93.333334%,51.372552%);stop-opacity:1;"/>
<stop offset="1" style="stop-color:rgb(99.215686%,77.254903%,60.000002%);stop-opacity:1;"/>
</linearGradient>
<linearGradient id="linear1" gradientUnits="userSpaceOnUse" x1="32" y1="4.167" x2="32" y2="60.358002" gradientTransform="matrix(2,0,0,2,0,0)">
<stop offset="0" style="stop-color:rgb(85.09804%,87.843138%,12.941177%);stop-opacity:1;"/>
<stop offset="1" style="stop-color:rgb(98.431373%,52.941179%,16.862746%);stop-opacity:1;"/>
</linearGradient>
<linearGradient id="linear2" gradientUnits="userSpaceOnUse" x1="32" y1="4.167" x2="32" y2="60.358002" gradientTransform="matrix(2,0,0,2,0,0)">
<stop offset="0" style="stop-color:rgb(85.09804%,87.843138%,12.941177%);stop-opacity:1;"/>
<stop offset="1" style="stop-color:rgb(98.431373%,52.941179%,16.862746%);stop-opacity:1;"/>
</linearGradient>
</defs>
<g id="surface50829373">
<path style=" stroke:none;fill-rule:nonzero;fill:url(#linear0);" d="M 64.625 77.589844 C 63.550781 77.585938 62.546875 77.171875 61.792969 76.410156 L 33.960938 48.582031 L 36.789062 45.753906 L 64.621094 73.585938 L 91.210938 47.003906 L 94.039062 49.832031 L 67.457031 76.414062 C 66.703125 77.171875 65.695312 77.589844 64.625 77.589844 Z M 64.625 77.589844 "/>
<path style=" stroke:none;fill-rule:nonzero;fill:url(#linear1);" d="M 64 12 C 35.324219 12 12 35.324219 12 64 C 12 92.675781 35.324219 116 64 116 C 92.675781 116 116 92.675781 116 64 C 116 35.324219 92.675781 12 64 12 Z M 64 112 C 37.535156 112 16 90.464844 16 64 C 16 37.535156 37.535156 16 64 16 C 90.464844 16 112 37.535156 112 64 C 112 90.464844 90.464844 112 64 112 Z M 64 112 "/>
<path style=" stroke:none;fill-rule:nonzero;fill:url(#linear2);" d="M 91.53125 39.226562 C 90.03125 38.601562 88.320312 38.945312 87.179688 40.09375 L 65.414062 61.855469 C 64.636719 62.636719 63.367188 62.636719 62.589844 61.859375 L 40.824219 40.09375 C 39.679688 38.945312 37.96875 38.601562 36.46875 39.222656 C 34.96875 39.847656 34 41.296875 34 42.921875 L 34 59.910156 C 34 60.964844 34.429688 61.996094 35.171875 62.734375 L 59.761719 87.324219 C 60.929688 88.492188 62.464844 89.078125 64 89.078125 C 65.535156 89.078125 67.070312 88.492188 68.242188 87.324219 L 92.828125 62.734375 C 93.585938 61.980469 94 60.976562 94 59.910156 L 94 42.921875 C 94 41.296875 93.03125 39.847656 91.53125 39.226562 Z M 90 59.90625 L 65.414062 84.496094 C 64.636719 85.277344 63.367188 85.277344 62.589844 84.496094 L 38.003906 59.910156 L 37.996094 42.921875 L 59.761719 64.6875 C 62.101562 67.023438 65.902344 67.019531 68.242188 64.6875 L 90 42.921875 Z M 90 59.90625 "/>
</g>
</svg>
