<svg xmlns="http://www.w3.org/2000/svg"  viewBox="0 0 468 468" width="100px" height="100px"><ellipse cx="437.032" cy="198.016" rx="13.968" ry="14"/><path d="M438.046,155.74c6.612,0,11.973-5.373,11.973-12V44.928c0-6.627-5.36-12-11.973-12h-83.047V12c0-6.627-5.36-12-11.973-12 s-11.973,5.373-11.973,12v20.928h-85.571V12c0-6.627-5.36-12-11.973-12c-6.612,0-11.973,5.373-11.973,12v20.928h-85.571V12 c0-6.627-5.36-12-11.973-12c-6.612,0-11.973,5.373-11.973,12v20.928H28.973c-6.612,0-11.973,5.373-11.973,12V456 c0,6.628,5.36,12,11.973,12h409.074c6.612,0,11.973-5.372,11.973-12V243.74c0-6.628-5.36-12-11.973-12s-11.973,5.372-11.973,12 V444H40.946V155.74H438.046z M331.053,77.336V56.928h23.946v20.408c5.397,3.797,8.935,10.077,8.935,17.197 c0,11.595-9.361,20.995-20.908,20.995s-20.908-9.4-20.908-20.995C322.119,87.413,325.656,81.132,331.053,77.336z M221.537,77.336 V56.928h23.946v20.408c5.397,3.797,8.935,10.077,8.935,17.197c0,11.595-9.361,20.995-20.908,20.995 c-11.547,0-20.908-9.4-20.908-20.995C212.602,87.413,216.139,81.132,221.537,77.336z M112.02,77.335V56.928h23.946v20.408 c5.397,3.797,8.935,10.077,8.935,17.197c0,11.595-9.361,20.995-20.908,20.995s-20.908-9.4-20.908-20.995 C103.085,87.413,106.623,81.132,112.02,77.335z"/><path d="M321.123,394.965H145.896c-6.612,0-11.973-5.373-11.973-12V217.004c0-6.627,5.36-12,11.973-12h175.227 c6.612,0,11.973,5.373,11.973,12v165.961C333.096,389.592,327.736,394.965,321.123,394.965z M157.869,370.965H309.15V229.004 H157.869V370.965z"/><path d="M208.321,333.936l-25.715-25.858c-4.662-4.688-4.659-12.286,0.009-16.97c4.668-4.685,12.231-4.682,16.894,0.009 l17.83,17.929l49.798-43.578c4.974-4.353,12.52-3.833,16.854,1.166c4.333,4.997,3.814,12.577-1.161,16.93l-58.211,50.94 C222.363,336.478,215.779,340.88,208.321,333.936z"/></svg>