<?xml version="1.0" encoding="UTF-8"?>
<svg xmlns="http://www.w3.org/2000/svg" xmlns:xlink="http://www.w3.org/1999/xlink" viewBox="0 0 128 128" width="128px" height="128px">
<defs>
<linearGradient id="linear0" gradientUnits="userSpaceOnUse" x1="11.44" y1="25.830999" x2="11.44" y2="29.583" gradientTransform="matrix(2,0,0,2,0,0)">
<stop offset="0" style="stop-color:rgb(91.764706%,93.333334%,51.372552%);stop-opacity:1;"/>
<stop offset="1" style="stop-color:rgb(99.215686%,77.254903%,60.000002%);stop-opacity:1;"/>
</linearGradient>
<linearGradient id="linear1" gradientUnits="userSpaceOnUse" x1="52.547001" y1="23.914" x2="52.547001" y2="27.841999" gradientTransform="matrix(2,0,0,2,0,0)">
<stop offset="0" style="stop-color:rgb(91.764706%,93.333334%,51.372552%);stop-opacity:1;"/>
<stop offset="1" style="stop-color:rgb(99.215686%,77.254903%,60.000002%);stop-opacity:1;"/>
</linearGradient>
<linearGradient id="linear2" gradientUnits="userSpaceOnUse" x1="32.001999" y1="8.116" x2="32.001999" y2="56.646999" gradientTransform="matrix(2,0,0,2,0,0)">
<stop offset="0" style="stop-color:rgb(85.09804%,87.843138%,12.941177%);stop-opacity:1;"/>
<stop offset="1" style="stop-color:rgb(98.431373%,52.941179%,16.862746%);stop-opacity:1;"/>
</linearGradient>
</defs>
<g id="surface54479526">
<path style=" stroke:none;fill-rule:nonzero;fill:url(#linear0);" d="M 22.878906 51.554688 C 20.839844 51.554688 19.1875 53.207031 19.1875 55.246094 C 19.1875 57.285156 20.839844 58.941406 22.878906 58.941406 C 24.917969 58.941406 26.570312 57.285156 26.570312 55.246094 C 26.570312 53.207031 24.917969 51.554688 22.878906 51.554688 Z M 22.878906 51.554688 "/>
<path style=" stroke:none;fill-rule:nonzero;fill:url(#linear1);" d="M 105.09375 47.640625 C 103.054688 47.640625 101.402344 49.292969 101.402344 51.332031 C 101.402344 53.371094 103.054688 55.023438 105.09375 55.023438 C 107.132812 55.023438 108.785156 53.371094 108.785156 51.332031 C 108.785156 49.292969 107.132812 47.640625 105.09375 47.640625 Z M 105.09375 47.640625 "/>
<path style=" stroke:none;fill-rule:nonzero;fill:url(#linear2);" d="M 114.339844 47.308594 L 85.628906 18.597656 C 83.410156 16.378906 79.800781 16.378906 77.578125 18.597656 L 72.359375 23.816406 C 70.640625 25.535156 70.273438 28.085938 71.214844 30.179688 L 67.25 34.144531 L 66.054688 32.953125 C 64.28125 31.179688 61.925781 30.203125 59.417969 30.203125 C 58.632812 30.203125 57.871094 30.328125 57.128906 30.519531 C 56.902344 29.496094 56.40625 28.523438 55.613281 27.730469 L 50.394531 22.511719 C 48.175781 20.292969 44.5625 20.296875 42.34375 22.511719 L 13.632812 51.222656 C 11.414062 53.441406 11.480469 57.050781 13.699219 59.273438 L 18.984375 64.492188 C 19.984375 65.601562 21.488281 66.152344 22.945312 66.152344 C 23.3125 66.152344 23.644531 66.117188 24.007812 66.046875 C 24.09375 68.328125 24.960938 70.585938 26.699219 72.320312 L 27.886719 73.515625 L 26.6875 74.710938 C 23.746094 77.648438 23.746094 82.433594 26.683594 85.371094 C 27.949219 86.636719 29.558594 87.320312 31.210938 87.496094 C 30.65625 89.941406 31.308594 92.609375 33.207031 94.507812 C 34.679688 95.976562 36.609375 96.710938 38.539062 96.710938 C 39.101562 96.710938 39.660156 96.628906 40.214844 96.503906 C 40.390625 98.15625 41.074219 99.765625 42.34375 101.03125 C 43.8125 102.5 45.742188 103.234375 47.671875 103.234375 C 48.234375 103.234375 48.796875 103.152344 49.351562 103.027344 C 49.527344 104.679688 50.210938 106.289062 51.476562 107.554688 C 52.949219 109.027344 54.878906 109.761719 56.808594 109.761719 C 58.6875 109.761719 60.5625 109.050781 62.015625 107.652344 L 63.222656 108.859375 C 64.691406 110.328125 66.621094 111.0625 68.550781 111.0625 C 70.480469 111.0625 72.410156 110.328125 73.878906 108.859375 C 74.816406 107.921875 75.421875 106.789062 75.761719 105.59375 C 77.101562 106.609375 78.691406 107.148438 80.296875 107.148438 C 82.226562 107.148438 84.15625 106.414062 85.625 104.945312 C 86.679688 103.890625 87.339844 102.597656 87.636719 101.238281 C 88.621094 101.683594 89.675781 101.929688 90.734375 101.929688 C 92.664062 101.929688 94.59375 101.195312 96.0625 99.722656 C 97.488281 98.300781 98.273438 96.40625 98.273438 94.394531 C 98.273438 93.304688 98.023438 92.257812 97.589844 91.292969 C 98.941406 90.996094 100.234375 90.335938 101.285156 89.285156 C 104.222656 86.34375 104.222656 81.5625 101.285156 78.625 L 96.175781 73.515625 L 101.285156 68.402344 C 103.023438 66.664062 103.90625 64.410156 103.992188 62.132812 C 104.355469 62.203125 104.722656 62.238281 105.089844 62.238281 C 106.546875 62.238281 108.007812 61.683594 109.113281 60.574219 L 114.335938 55.355469 C 116.558594 53.136719 116.558594 49.527344 114.339844 47.308594 Z M 21.683594 61.660156 L 16.464844 56.445312 C 15.804688 55.785156 15.804688 54.710938 16.464844 54.050781 L 45.175781 25.34375 C 45.828125 24.683594 46.90625 24.6875 47.566406 25.34375 L 52.785156 30.5625 C 53.445312 31.21875 53.445312 32.296875 52.785156 32.953125 L 46.261719 39.476562 L 31.902344 53.832031 L 24.074219 61.660156 C 23.421875 62.320312 22.339844 62.320312 21.683594 61.660156 Z M 29.515625 77.542969 C 30.203125 76.851562 31.109375 76.507812 32.015625 76.507812 C 32.917969 76.507812 33.824219 76.851562 34.515625 77.542969 C 35.183594 78.210938 35.550781 79.097656 35.550781 80.042969 C 35.550781 80.984375 35.183594 81.871094 34.515625 82.539062 C 33.132812 83.921875 30.890625 83.921875 29.511719 82.539062 C 28.136719 81.160156 28.136719 78.921875 29.515625 77.542969 Z M 36.039062 91.679688 C 34.65625 90.296875 34.65625 88.054688 36.039062 86.675781 L 37.34375 85.371094 L 38.648438 84.0625 C 39.988281 82.730469 42.316406 82.730469 43.648438 84.0625 C 45.03125 85.445312 45.03125 87.6875 43.648438 89.066406 L 42.34375 90.371094 L 41.039062 91.679688 C 39.660156 93.058594 37.417969 93.054688 36.039062 91.679688 Z M 45.175781 98.203125 C 43.796875 96.820312 43.796875 94.582031 45.175781 93.203125 C 45.863281 92.511719 46.769531 92.167969 47.675781 92.167969 C 48.578125 92.167969 49.484375 92.511719 50.175781 93.203125 C 51.550781 94.582031 51.550781 96.820312 50.175781 98.203125 C 48.796875 99.582031 46.550781 99.582031 45.175781 98.203125 Z M 59.308594 104.726562 C 57.929688 106.105469 55.691406 106.109375 54.308594 104.726562 C 52.929688 103.347656 52.929688 101.105469 54.308594 99.726562 C 55 99.035156 55.902344 98.691406 56.808594 98.691406 C 57.714844 98.691406 58.621094 99.035156 59.308594 99.726562 C 60.6875 101.105469 60.6875 103.347656 59.308594 104.726562 Z M 98.460938 86.457031 C 97.082031 87.835938 94.839844 87.839844 93.457031 86.457031 L 77.796875 70.796875 L 74.96875 73.625 L 93.238281 91.894531 C 93.90625 92.5625 94.273438 93.453125 94.273438 94.394531 C 94.273438 95.339844 93.90625 96.226562 93.238281 96.894531 C 91.859375 98.273438 89.617188 98.273438 88.234375 96.894531 L 85.628906 94.285156 L 81.710938 90.371094 L 69.96875 78.625 L 67.136719 81.457031 L 78.882812 93.199219 L 82.796875 97.117188 C 84.175781 98.492188 84.175781 100.734375 82.796875 102.117188 C 81.417969 103.496094 79.175781 103.496094 77.796875 102.117188 L 62.136719 86.457031 L 59.304688 89.285156 L 71.050781 101.03125 C 72.429688 102.410156 72.429688 104.652344 71.050781 106.03125 C 69.667969 107.40625 67.429688 107.40625 66.050781 106.03125 L 64.082031 104.0625 C 64.707031 101.574219 64.074219 98.835938 62.132812 96.894531 C 60.234375 94.992188 57.570312 94.34375 55.128906 94.898438 C 54.953125 93.242188 54.265625 91.636719 53 90.371094 C 51.734375 89.105469 50.125 88.417969 48.46875 88.242188 C 49.027344 85.796875 48.375 83.132812 46.472656 81.234375 C 44.574219 79.335938 41.910156 78.683594 39.46875 79.238281 C 39.289062 77.53125 38.570312 75.941406 37.339844 74.710938 C 35.953125 73.324219 34.15625 72.617188 32.339844 72.539062 L 32.011719 72.210938 L 32.121094 72.101562 L 29.511719 69.488281 C 27.414062 67.394531 27.410156 63.988281 29.5 61.890625 L 55.613281 35.78125 C 55.617188 35.777344 55.617188 35.777344 55.617188 35.777344 C 57.648438 33.746094 61.1875 33.753906 63.222656 35.78125 L 64.417969 36.972656 L 56.695312 44.695312 L 52.78125 48.613281 C 51.011719 50.382812 50.03125 52.738281 50.03125 55.246094 C 50.03125 57.753906 51.007812 60.109375 52.78125 61.882812 C 56.441406 65.539062 62.390625 65.539062 66.050781 61.882812 L 72.464844 55.464844 L 98.460938 81.457031 C 99.839844 82.835938 99.839844 85.078125 98.460938 86.457031 Z M 98.460938 65.574219 L 93.347656 70.6875 L 72.46875 49.808594 L 63.222656 59.054688 C 61.128906 61.148438 57.714844 61.152344 55.613281 59.054688 C 54.597656 58.035156 54.039062 56.6875 54.039062 55.246094 C 54.039062 53.8125 54.597656 52.460938 55.613281 51.445312 L 73.773438 33.285156 L 98.46875 57.980469 C 100.554688 60.074219 100.554688 63.480469 98.460938 65.574219 Z M 111.511719 52.527344 L 106.289062 57.746094 C 105.628906 58.40625 104.558594 58.40625 103.898438 57.746094 L 101.296875 55.148438 C 101.296875 55.144531 101.292969 55.140625 101.289062 55.136719 L 75.191406 29.039062 C 74.53125 28.378906 74.53125 27.304688 75.191406 26.644531 L 80.410156 21.429688 C 80.738281 21.097656 81.171875 20.933594 81.605469 20.933594 C 82.039062 20.933594 82.472656 21.097656 82.800781 21.429688 L 111.511719 50.136719 C 112.167969 50.796875 112.167969 51.867188 111.511719 52.527344 Z M 111.511719 52.527344 "/>
</g>
</svg>
