<?xml version="1.0" encoding="UTF-8"?>
<svg xmlns="http://www.w3.org/2000/svg" xmlns:xlink="http://www.w3.org/1999/xlink" viewBox="0 0 128 128" width="128px" height="128px">
<defs>
<linearGradient id="linear0" gradientUnits="userSpaceOnUse" x1="86" y1="17.917561" x2="86" y2="155.531006" gradientTransform="matrix(0.744186,0,0,0.744186,0,0)">
<stop offset="0" style="stop-color:rgb(85.09804%,87.843138%,12.941177%);stop-opacity:1;"/>
<stop offset="1" style="stop-color:rgb(98.431373%,52.941179%,16.862746%);stop-opacity:1;"/>
</linearGradient>
<linearGradient id="linear1" gradientUnits="userSpaceOnUse" x1="86" y1="48.823811" x2="86" y2="122.762306" gradientTransform="matrix(0.744186,0,0,0.744186,0,0)">
<stop offset="0" style="stop-color:rgb(91.764706%,93.333334%,51.372552%);stop-opacity:1;"/>
<stop offset="1" style="stop-color:rgb(99.215686%,77.254903%,60.000002%);stop-opacity:1;"/>
</linearGradient>
<linearGradient id="linear2" gradientUnits="userSpaceOnUse" x1="123.625" y1="34.265629" x2="123.625" y2="61.944191" gradientTransform="matrix(0.744186,0,0,0.744186,0,0)">
<stop offset="0" style="stop-color:rgb(91.764706%,93.333334%,51.372552%);stop-opacity:1;"/>
<stop offset="1" style="stop-color:rgb(99.215686%,77.254903%,60.000002%);stop-opacity:1;"/>
</linearGradient>
</defs>
<g id="surface14989744">
<path style=" stroke:none;fill-rule:nonzero;fill:url(#linear0);" d="M 88 114 L 40 114 C 25.664062 114 14 102.335938 14 88 L 14 40 C 14 25.664062 25.664062 14 40 14 L 88 14 C 102.335938 14 114 25.664062 114 40 L 114 88 C 114 102.335938 102.335938 114 88 114 Z M 40 18 C 27.871094 18 18 27.871094 18 40 L 18 88 C 18 100.128906 27.871094 110 40 110 L 88 110 C 100.128906 110 110 100.128906 110 88 L 110 40 C 110 27.871094 100.128906 18 88 18 Z M 40 18 "/>
<path style=" stroke:none;fill-rule:nonzero;fill:url(#linear1);" d="M 64 90 C 49.664062 90 38 78.335938 38 64 C 38 49.664062 49.664062 38 64 38 C 78.335938 38 90 49.664062 90 64 C 90 78.335938 78.335938 90 64 90 Z M 64 46 C 54.074219 46 46 54.074219 46 64 C 46 73.925781 54.074219 82 64 82 C 73.925781 82 82 73.925781 82 64 C 82 54.074219 73.925781 46 64 46 Z M 64 46 "/>
<path style=" stroke:none;fill-rule:nonzero;fill:url(#linear2);" d="M 92 30 C 88.6875 30 86 32.6875 86 36 C 86 39.3125 88.6875 42 92 42 C 95.3125 42 98 39.3125 98 36 C 98 32.6875 95.3125 30 92 30 Z M 92 30 "/>
</g>
</svg>
