<svg fill="#000000" xmlns="http://www.w3.org/2000/svg"  viewBox="0 0 50 50" width="150px" height="150px"><path d="M 24.09375 -0.125 C 22.164063 -0.140625 19.945313 0.71875 18.5625 2.96875 C 17.300781 4.96875 16.882813 7.625 17.625 10.03125 C 17.585938 10.101563 17.496094 10.152344 17.46875 10.21875 C 17.371094 10.460938 17.34375 10.695313 17.3125 11 C 17.171875 12.402344 17.722656 13.738281 18.375 14.65625 C 18.386719 14.675781 18.394531 14.667969 18.40625 14.6875 C 18.667969 15.058594 18.886719 15.117188 19.125 15.25 C 19.226563 15.683594 19.628906 16.871094 20.71875 18.28125 C 20.757813 18.527344 20.703125 18.675781 20.5625 18.84375 C 20.4375 18.992188 20.328125 19.03125 20.28125 19.0625 C 18.265625 19.441406 16.328125 20.140625 14.75 21.03125 C 13.328125 21.835938 12.171875 22.800781 11.53125 24 L 3 24 C 1.355469 24 0 25.355469 0 27 L 0 28.6875 C -0.109375 29.042969 -0.0117188 29.425781 0.25 29.6875 L 4.125 36.5 C 4.304688 36.8125 4.640625 37.003906 5 37 L 9.4375 37 L 11.40625 49.15625 C 11.433594 49.53125 11.671875 49.859375 12.019531 50.003906 C 12.367188 50.148438 12.769531 50.085938 13.054688 49.839844 C 13.339844 49.59375 13.464844 49.210938 13.375 48.84375 L 11.3125 36 C 11.3125 35.980469 11.3125 35.957031 11.3125 35.9375 L 11.3125 35.875 C 11.304688 35.777344 11.285156 35.683594 11.25 35.59375 L 11 34 L 39 34 L 36.625 48.84375 C 36.535156 49.210938 36.660156 49.59375 36.945313 49.839844 C 37.230469 50.085938 37.632813 50.148438 37.980469 50.003906 C 38.328125 49.859375 38.566406 49.53125 38.59375 49.15625 L 40.5625 37 L 45 37 C 45.359375 37.003906 45.695313 36.8125 45.875 36.5 L 49.875 29.5 C 49.960938 29.347656 50.003906 29.175781 50 29 L 50 27 C 50 25.410156 48.726563 24.117188 47.15625 24.03125 C 47.109375 22.941406 46.957031 21.980469 46.53125 21.125 C 46.140625 20.339844 45.554688 19.671875 44.78125 19.09375 C 44.917969 18.753906 45 18.386719 45 18 C 45 16.355469 43.644531 15 42 15 C 40.355469 15 39 16.355469 39 18 C 39 19.644531 40.355469 21 42 21 C 42.519531 21 43.007813 20.859375 43.4375 20.625 C 44.074219 21.082031 44.460938 21.519531 44.71875 22.03125 C 44.96875 22.527344 45.101563 23.160156 45.15625 24 L 38.4375 24 C 37.792969 22.851563 36.648438 21.929688 35.28125 21.15625 C 33.671875 20.242188 31.707031 19.542969 29.625 19.125 C 29.625 19.125 29.597656 19.125 29.59375 19.125 C 29.5625 19.113281 29.421875 19.042969 29.34375 18.96875 C 29.300781 18.929688 29.285156 18.921875 29.28125 18.90625 C 29.277344 18.890625 29.277344 18.820313 29.40625 18.5625 C 29.890625 17.90625 30.304688 17.230469 30.59375 16.65625 C 30.832031 16.175781 30.957031 15.828125 31.0625 15.46875 C 31.453125 15.164063 32.699219 14.101563 32.8125 12.15625 C 32.867188 11.226563 32.789063 10.667969 32.625 10.21875 C 32.601563 10.160156 32.558594 10.117188 32.53125 10.0625 C 32.835938 8.789063 32.980469 6.964844 32.5 5.125 C 32.230469 4.089844 31.742188 3.074219 30.875 2.34375 C 30.160156 1.738281 29.152344 1.496094 28.03125 1.53125 C 27.6875 1.078125 27.25 0.699219 26.71875 0.4375 C 25.960938 0.0664063 25.058594 -0.117188 24.09375 -0.125 Z M 24.09375 1.875 C 24.765625 1.878906 25.390625 2.027344 25.84375 2.25 C 26.296875 2.472656 26.519531 2.769531 26.5625 2.875 C 26.734375 3.316406 27.191406 3.578125 27.65625 3.5 C 28.632813 3.335938 29.167969 3.515625 29.59375 3.875 C 30.019531 4.234375 30.359375 4.878906 30.5625 5.65625 C 30.972656 7.214844 30.738281 9.339844 30.53125 10 C 30.425781 10.339844 30.511719 10.707031 30.75 10.96875 C 30.765625 11.027344 30.855469 11.304688 30.8125 12.03125 C 30.746094 13.171875 29.59375 14.09375 29.59375 14.09375 C 29.394531 14.246094 29.261719 14.46875 29.21875 14.71875 C 29.207031 14.769531 29.042969 15.226563 28.78125 15.75 C 28.519531 16.273438 28.171875 16.910156 27.71875 17.5 C 27.671875 17.546875 27.628906 17.601563 27.59375 17.65625 C 27.324219 18.199219 27.222656 18.742188 27.3125 19.25 C 27.402344 19.757813 27.6875 20.175781 27.96875 20.4375 C 28.53125 20.957031 29.15625 21.0625 29.15625 21.0625 C 29.175781 21.074219 29.199219 21.085938 29.21875 21.09375 C 31.125 21.476563 32.929688 22.121094 34.3125 22.90625 C 34.917969 23.25 35.402344 23.632813 35.8125 24 L 14.03125 24 C 14.476563 23.574219 15.0625 23.140625 15.75 22.75 C 17.15625 21.953125 18.984375 21.332031 20.875 21 C 20.984375 20.976563 21.089844 20.933594 21.1875 20.875 C 21.1875 20.875 21.644531 20.617188 22.0625 20.125 C 22.480469 19.632813 22.917969 18.777344 22.6875 17.78125 C 22.644531 17.617188 22.558594 17.464844 22.4375 17.34375 C 21.222656 15.953125 21 14.53125 21 14.53125 C 20.9375 14.214844 20.730469 13.949219 20.4375 13.8125 C 20.238281 13.710938 20.003906 13.488281 20.03125 13.53125 C 20.019531 13.53125 20.011719 13.53125 20 13.53125 C 19.65625 13.050781 19.222656 11.773438 19.28125 11.1875 C 19.289063 11.113281 19.304688 11.136719 19.3125 11.09375 C 19.371094 11.050781 19.414063 11.066406 19.46875 11 C 19.683594 10.742188 19.6875 10.460938 19.6875 10.3125 C 19.695313 10.175781 19.671875 10.035156 19.625 9.90625 C 18.871094 8.066406 19.226563 5.65625 20.25 4.03125 C 21.265625 2.382813 22.746094 1.863281 24.09375 1.875 Z M 19.09375 11.1875 C 19.058594 11.21875 19.078125 11.253906 19.03125 11.28125 C 18.960938 11.320313 18.898438 11.332031 18.84375 11.34375 C 18.886719 11.335938 19.007813 11.226563 19.09375 11.1875 Z M 42 17 C 42.5625 17 43 17.4375 43 18 C 43 18.242188 42.914063 18.453125 42.78125 18.625 C 42.710938 18.679688 42.648438 18.742188 42.59375 18.8125 C 42.429688 18.929688 42.222656 19 42 19 C 41.4375 19 41 18.5625 41 18 C 41 17.4375 41.4375 17 42 17 Z M 3 26 L 37.5625 26 C 37.753906 26.058594 37.964844 26.058594 38.15625 26 L 47 26 C 47.554688 26 48 26.445313 48 27 L 48 28 L 2 28 L 2 27 C 2 26.445313 2.445313 26 3 26 Z M 2.71875 30 L 47.28125 30 L 44.40625 35 L 40.875 35 L 41 34.25 C 41.203125 33.027344 40.261719 32 39.09375 32 L 10.90625 32 C 9.75 32 8.8125 33.132813 9 34.25 L 9.125 35 L 5.59375 35 Z"/></svg>