<svg fill="#000000" xmlns="http://www.w3.org/2000/svg"  viewBox="0 0 64 64" width="128px" height="128px"><path d="M 13.970703 2 A 1 1 0 0 0 13 3 L 13 5 A 1 1 0 0 0 14 6 A 1 1 0 0 0 15 5 L 15 3 A 1 1 0 0 0 13.970703 2 z M 20.970703 2 A 1 1 0 0 0 20 3 L 20 7 A 1 1 0 0 0 21 8 A 1 1 0 0 0 22 7 L 22 3 A 1 1 0 0 0 20.970703 2 z M 43.970703 2 A 1 1 0 0 0 43 3 L 43 8 A 1 1 0 0 0 44 9 A 1 1 0 0 0 45 8 L 45 3 A 1 1 0 0 0 43.970703 2 z M 49.970703 2 A 1 1 0 0 0 49 3 L 49 11 A 1 1 0 0 0 50 12 A 1 1 0 0 0 51 11 L 51 3 A 1 1 0 0 0 49.970703 2 z M 31.650391 5.0058594 A 12 12 0 0 0 20 17 A 12.33 12.33 0 0 0 20.390625 20 L 9 20 A 3 3 0 0 0 6 23 L 6 49 A 3 3 0 0 0 9 52 L 21.130859 52 L 18.460938 56 L 16 56 A 3 3 0 0 0 13 59 L 13 61 A 1 1 0 0 0 14 62 L 48 62 A 1 1 0 0 0 49 61 L 49 59 A 3 3 0 0 0 46 56 L 43.539062 56 L 40.869141 52 L 53 52 A 3 3 0 0 0 56 49 L 56 23 A 3 3 0 0 0 53.419922 20 A 3.94 3.94 0 0 0 54 18 A 4 4 0 0 0 46 18 A 3.91 3.91 0 0 0 46.560547 20 L 43.560547 20 A 12.33 12.33 0 0 0 44 17 A 12 12 0 0 0 31.650391 5.0058594 z M 32 7 A 10 10 0 1 1 22 17 A 10 10 0 0 1 32 7 z M 14.166016 8.0039062 A 4 4 0 0 0 10 12 A 4 4 0 0 0 14 16 A 4 4 0 0 0 14.166016 8.0039062 z M 31.970703 9 A 1 1 0 0 0 31 10 L 31 11.160156 A 3.49 3.49 0 0 0 32 18 A 1.5 1.5 0 0 1 32 21 A 1.5 1.5 0 0 1 30.5 19.5 A 1 1 0 0 0 28.5 19.5 A 3.5 3.5 0 0 0 31 22.839844 L 31 24 A 1 1 0 0 0 33 24 L 33 22.839844 A 3.49 3.49 0 0 0 32 16 A 1.5 1.5 0 1 1 33.5 14.5 A 1 1 0 0 0 35.5 14.5 A 3.5 3.5 0 0 0 33 11.160156 L 33 10 A 1 1 0 0 0 31.970703 9 z M 14 10 A 2 2 0 1 1 12 12 A 2 2 0 0 1 14 10 z M 50.058594 16 A 2 2 0 0 1 50 20 A 2 2 0 0 1 48 18 A 2 2 0 0 1 50.058594 16 z M 9 22 L 21.109375 22 A 12 12 0 0 0 42.890625 22 L 53 22 A 1 1 0 0 1 54 23 L 54 49 A 1 1 0 0 1 53 50 L 9 50 A 1 1 0 0 1 8 49 L 8 48 L 13.25 48 A 1 1 0 0 0 14.25 47 L 14.25 46 L 32.080078 46 A 7 7 0 0 0 36.810547 44.160156 L 45.609375 36.089844 A 4.07 4.07 0 0 0 46.119141 30.490234 A 3.91 3.91 0 0 0 43.310547 29 A 4 4 0 0 0 40.310547 30 L 34.390625 35.429688 A 1 1 0 0 1 33.619141 35.689453 L 31.619141 35.509766 A 4 4 0 0 0 28.320312 31.669922 L 18.460938 30 A 0.5 0.5 0 0 0 18.289062 30 L 14.289062 30 L 14.289062 29 A 1 1 0 0 0 13.289062 28 L 8 28 L 8 23 A 1 1 0 0 1 9 22 z M 8 30 L 12.25 30 L 12.25 46 L 8 46 L 8 30 z M 42.947266 31.037109 A 2 2 0 0 1 44.580078 31.769531 A 2.12 2.12 0 0 1 44.259766 34.630859 L 35.460938 42.699219 A 5 5 0 0 1 32.080078 44 L 14.25 44 L 14.25 32 L 18.199219 32 L 28 33.720703 A 2 2 0 0 1 29.580078 36 A 2 2 0 0 1 27.269531 37.619141 L 20.419922 36.410156 A 1.015197 1.015197 0 0 0 20.070312 38.410156 L 26.919922 39.619141 A 4.14 4.14 0 0 0 27.619141 39.679688 A 4 4 0 0 0 31.140625 37.550781 L 33.470703 37.75 A 3 3 0 0 0 35.759766 37 L 41.679688 31.560547 A 2 2 0 0 1 42.947266 31.037109 z M 23.539062 52 L 38.460938 52 L 41.130859 56 L 20.869141 56 L 23.539062 52 z M 16 58 L 46 58 A 1 1 0 0 1 47 59 L 47 60 L 15 60 L 15 59 A 1 1 0 0 1 16 58 z"/></svg>