<svg xmlns="http://www.w3.org/2000/svg"  viewBox="0 0 468.188 468.188" width="100px" height="100px"><path d="M213.81,179.738h-40.368c-2.703-24.466-33.904-38.043-53.691-23.214L95.598,130.95 c12.365-10.094,27.732-15.617,43.807-15.617c24.428,0,46.605,12.472,59.325,33.362c1.445,2.38,4.55,3.094,6.871,1.67 c2.358-1.436,3.106-4.512,1.67-6.871c-14.55-23.896-39.92-38.162-67.866-38.162C96.78,104.502,59.06,142.07,60,184.738 c-0.907,42.691,36.712,80.237,79.405,79.405c43.783,0,79.404-35.621,79.404-79.405 C218.81,181.977,216.571,179.738,213.81,179.738z M163.81,184.738c0,13.457-10.947,24.405-24.404,24.405 s-24.404-10.948-24.404-24.405s10.947-24.405,24.404-24.405S163.81,171.281,163.81,184.738z M70,184.738 c0-17.626,6.464-34.114,18.306-46.946l24.161,25.583c-10.618,12.401-9.57,33.802,2.077,45.108L93.321,236.62 C78.439,223.437,70,204.795,70,184.738z"/><path d="M249.094,414.619h-30c-2.762,0-5-2.239-5-5s2.238-5,5-5h30c2.762,0,5,2.239,5,5S251.855,414.619,249.094,414.619z"/><path d="M215.583,304.703H75c-2.762,0-5-2.239-5-5s2.238-5,5-5h140.583c2.762,0,5,2.239,5,5S218.345,304.703,215.583,304.703z"/><circle cx="216.31" cy="70.333" r="6.5"/><path d="M203,344.703H75c-2.762,0-5-2.239-5-5s2.238-5,5-5h128c2.762,0,5,2.239,5,5S205.762,344.703,203,344.703z"/><circle cx="240.5" cy="299.703" r="6.5"/><path d="M468.188,70.474V48.569c0-13.785-11.215-25-25-25H264.44c-13.785,0-25,11.215-25,25v21.904 c0,13.782,11.213,24.997,24.995,25l12.285,0.002l-0.147,26.065c-0.152,4.027,4.913,6.552,8.039,3.999l39.267-30.063L438,95.474 v99.145H283.589c-2.762,0-5,2.239-5,5v175H30V90.333c0-8.271,6.729-15,15-15h145.626c2.762,0,5-2.239,5-5s-2.238-5-5-5H45 c-13.785,0-25,11.215-25,25v284.286H5c-2.762,0-5,2.239-5,5v30c0,19.299,15.701,35,35,35h398c19.299,0,35-15.701,35-35v-30 c0-2.761-2.238-5-5-5h-15V95.004C459.49,92.753,468.188,82.612,468.188,70.474z M299.011,64.206h-20.545c-2.762,0-5-2.239-5-5 s2.238-5,5-5h20.545c2.762,0,5,2.239,5,5S301.772,64.206,299.011,64.206z M429.161,64.206h-92.809c-2.762,0-5-2.239-5-5 s2.238-5,5-5h92.809c2.762,0,5,2.239,5,5S431.923,64.206,429.161,64.206z M288.589,204.619H438v170h-11.215 c-5.668-18.082-21.266-30.872-39.898-32.829v-14.351c6.64-5.618,11.174-13.601,12.252-22.618 c11.28-3.04,17.001-13.579,16.985-31.449c0.058-1.787,0.353-19.134-9.361-29.529c-3.646-3.902-8.165-6.339-13.472-7.273 c-2.025-8.251-9.401-14.431-18.232-14.65c-29.912-5.014-66.399,8.05-64.582,56.229c0.416,18.353,10.309,25.587,18.036,27.576 c1.204,8.213,5.278,15.523,11.19,20.89v15.175c-18.632,1.958-34.23,14.749-39.899,32.831h-11.215V204.619z M363.762,325.902 c-14.083,0-25.58-11.283-25.628-25.133v-21.611c9.081-1.386,17.25-6.414,22.594-14.05c7.608,7.983,17.763,12.98,28.663,14.165 v21.391C389.391,314.58,377.894,325.902,363.762,325.902z M376.887,333.436v12.411c-0.048,0.181-0.098,0.359-0.15,0.535 c-3.303,13.427-24.289,12.985-27.034-0.567V333.06C357.966,336.66,368.509,336.821,376.887,333.436z M458,384.619v25 c0,13.785-11.215,25-25,25H35c-13.785,0-25-11.215-25-25v-25H458z"/></svg>