<svg fill="#000000" xmlns="http://www.w3.org/2000/svg"  viewBox="0 0 50 50" width="150px" height="150px"><path d="M 25 0 C 22.25 0 20 2.25 20 5 C 20 6.390625 20.574219 7.652344 21.5 8.5625 L 13.8125 20.375 C 13.246094 20.152344 12.644531 20 12 20 C 9.25 20 7 22.25 7 25 C 7 26.820313 8.003906 28.40625 9.46875 29.28125 L 5.71875 40.0625 C 5.480469 40.027344 5.246094 40 5 40 C 2.25 40 0 42.25 0 45 C 0 47.75 2.25 50 5 50 C 7.75 50 10 47.75 10 45 C 10 43.207031 9.023438 41.632813 7.59375 40.75 L 11.375 29.9375 C 11.582031 29.964844 11.785156 30 12 30 C 12.214844 30 12.417969 29.964844 12.625 29.9375 L 16.4375 40.71875 C 14.988281 41.597656 14 43.191406 14 45 C 14 47.75 16.25 50 19 50 C 21.75 50 24 47.75 24 45 C 24 42.25 21.75 40 19 40 C 18.773438 40 18.5625 40.03125 18.34375 40.0625 L 14.53125 29.28125 C 15.996094 28.40625 17 26.820313 17 25 C 17 23.609375 16.425781 22.347656 15.5 21.4375 L 23.1875 9.625 C 23.753906 9.847656 24.355469 10 25 10 C 25.644531 10 26.246094 9.847656 26.8125 9.625 L 34.5 21.4375 C 33.574219 22.347656 33 23.609375 33 25 C 33 26.820313 34.003906 28.40625 35.46875 29.28125 L 31.65625 40.0625 C 31.4375 40.03125 31.226563 40 31 40 C 28.25 40 26 42.25 26 45 C 26 47.75 28.25 50 31 50 C 33.75 50 36 47.75 36 45 C 36 43.191406 35.011719 41.597656 33.5625 40.71875 L 37.375 29.9375 C 37.582031 29.964844 37.785156 30 38 30 C 38.214844 30 38.417969 29.964844 38.625 29.9375 L 42.40625 40.75 C 40.976563 41.632813 40 43.207031 40 45 C 40 47.75 42.25 50 45 50 C 47.75 50 50 47.75 50 45 C 50 42.25 47.75 40 45 40 C 44.753906 40 44.519531 40.027344 44.28125 40.0625 L 40.53125 29.28125 C 41.996094 28.40625 43 26.820313 43 25 C 43 22.25 40.75 20 38 20 C 37.355469 20 36.753906 20.152344 36.1875 20.375 L 28.5 8.5625 C 29.425781 7.652344 30 6.390625 30 5 C 30 2.25 27.75 0 25 0 Z M 25 2 C 26.667969 2 28 3.332031 28 5 C 28 6.667969 26.667969 8 25 8 C 23.332031 8 22 6.667969 22 5 C 22 3.332031 23.332031 2 25 2 Z M 12 22 C 13.667969 22 15 23.332031 15 25 C 15 26.667969 13.667969 28 12 28 C 10.332031 28 9 26.667969 9 25 C 9 23.332031 10.332031 22 12 22 Z M 38 22 C 39.667969 22 41 23.332031 41 25 C 41 26.667969 39.667969 28 38 28 C 36.332031 28 35 26.667969 35 25 C 35 23.332031 36.332031 22 38 22 Z M 5 42 C 6.667969 42 8 43.332031 8 45 C 8 46.667969 6.667969 48 5 48 C 3.332031 48 2 46.667969 2 45 C 2 43.332031 3.332031 42 5 42 Z M 19 42 C 20.667969 42 22 43.332031 22 45 C 22 46.667969 20.667969 48 19 48 C 17.332031 48 16 46.667969 16 45 C 16 43.332031 17.332031 42 19 42 Z M 31 42 C 32.667969 42 34 43.332031 34 45 C 34 46.667969 32.667969 48 31 48 C 29.332031 48 28 46.667969 28 45 C 28 43.332031 29.332031 42 31 42 Z M 45 42 C 46.667969 42 48 43.332031 48 45 C 48 46.667969 46.667969 48 45 48 C 43.332031 48 42 46.667969 42 45 C 42 43.332031 43.332031 42 45 42 Z"/></svg>