<svg fill="#000000" xmlns="http://www.w3.org/2000/svg"  viewBox="0 0 68 68" width="132px" height="132px"><path d="M 33.902344 2 C 16.242535 2.0403492 1.9574121 16.436859 2.0058594 34.089844 C 2.0542307 51.365322 15.97219 66 34.087891 66 C 42.759911 65.979423 50.803837 62.487976 56.683594 56.566406 C 56.683594 56.566406 56.683594 56.564453 56.683594 56.564453 C 62.687988 50.52832 65.996094 42.508301 65.996094 33.980469 L 65.996094 33.910156 L 65.996094 33.908203 C 65.955643 16.666462 51.991261 2 33.980469 2 L 33.902344 2 z M 33.908203 4 C 41.581055 4.0249023 48.845215 6.8320313 54.429688 12.044922 L 48.337891 18.169922 C 44.529198 14.695991 39.398369 12.628906 33.935547 12.628906 L 33.933594 12.628906 L 33.931641 12.628906 C 33.865723 12.629395 33.800293 12.640137 33.734375 12.640625 C 28.419996 12.704366 23.42388 14.701755 19.568359 18.242188 L 13.449219 12.15625 C 19.00293 6.9057617 26.229004 4.0175781 33.908203 4 z M 55.847656 13.455078 C 61.091797 19.020508 63.978027 26.246582 63.996094 33.912109 L 63.996094 33.980469 C 63.996094 41.641602 61.150391 48.864258 55.960938 54.433594 L 49.833984 48.341797 C 53.288074 44.550274 55.384159 39.370728 55.365234 33.935547 C 55.345917 28.484339 53.200176 23.330164 49.753906 19.582031 L 55.847656 13.455078 z M 12.039062 13.576172 L 18.158203 19.660156 C 14.683604 23.492897 12.619602 28.682957 12.634766 34.058594 C 12.650141 39.535698 14.831702 44.734829 18.246094 48.429688 L 12.152344 54.554688 C 6.9116215 48.991699 4.0273438 41.761719 4.0058594 34.083984 C 3.9848638 26.411133 6.8286138 19.166992 12.039062 13.576172 z M 33.941406 14.628906 L 33.996094 14.628906 C 44.804508 14.628906 53.337322 23.431038 53.365234 33.945312 C 53.394527 44.658153 44.791542 53.192249 34.294922 53.357422 C 34.212646 53.358887 34.131348 53.369141 34.048828 53.369141 C 23.722813 53.424164 14.664818 45.06633 14.634766 34.054688 C 14.606565 23.394531 23.166197 14.757952 33.787109 14.636719 C 33.839355 14.63623 33.88916 14.628906 33.941406 14.628906 z M 32.228516 21.177734 C 31.125488 21.177734 30.228516 22.074707 30.228516 23.177734 L 30.228516 42.253906 C 30.228516 43.356445 31.125488 44.253906 32.228516 44.253906 L 35.771484 44.253906 C 36.874512 44.253906 37.771484 43.356445 37.771484 42.253906 L 37.771484 23.177734 C 37.771484 22.074707 36.874512 21.177734 35.771484 21.177734 L 32.228516 21.177734 z M 32.228516 23.177734 L 35.771484 23.177734 L 35.771484 42.253906 L 32.228516 42.253906 L 32.228516 23.177734 z M 42.242188 27.003906 C 41.13916 27.003906 40.242188 27.900879 40.242188 29.003906 L 40.242188 42.253906 C 40.242188 43.356445 41.13916 44.253906 42.242188 44.253906 L 45.783203 44.253906 C 46.88623 44.253906 47.783203 43.356445 47.783203 42.253906 L 47.783203 29.003906 C 47.783203 27.900879 46.88623 27.003906 45.783203 27.003906 L 42.242188 27.003906 z M 45.783203 29.001953 L 45.783203 42.253906 L 42.242188 42.253906 L 42.242188 29.003906 L 45.783203 29.001953 z M 22.216797 32.052734 C 21.11377 32.052734 20.216797 32.949707 20.216797 34.052734 L 20.216797 42.253906 C 20.216797 43.356445 21.11377 44.253906 22.216797 44.253906 L 25.759766 44.253906 C 26.862793 44.253906 27.759766 43.356445 27.759766 42.253906 L 27.759766 34.052734 C 27.759766 32.949707 26.862793 32.052734 25.759766 32.052734 L 22.216797 32.052734 z M 22.216797 34.052734 L 25.759766 34.052734 L 25.759766 42.253906 L 22.216797 42.253906 L 22.216797 34.052734 z M 48.423828 49.759766 L 54.550781 55.853516 C 49.228115 60.873184 42.031834 63.980999 34.015625 64 C 26.352295 64 19.130371 61.153809 13.570312 55.964844 C 13.794903 55.739014 19.765753 49.737602 19.666016 49.837891 C 23.424425 53.252392 28.574051 55.369141 33.980469 55.369141 C 39.454376 55.369141 44.685593 53.198944 48.423828 49.759766 z"/></svg>