<svg fill="#000000" xmlns="http://www.w3.org/2000/svg"  viewBox="0 0 50 50" width="150px" height="150px"><path d="M 37 0 L 36.400391 3.1992188 C 36.100391 3.2992188 35.700391 3.3996094 35.400391 3.5996094 L 32.699219 1.6992188 L 29.699219 4.6992188 L 31.5 7.1992188 C 31.4 7.5992188 31.199609 7.9007812 31.099609 8.3007812 L 28 8.8007812 L 28 13 L 31.099609 13.5 C 31.199609 13.8 31.3 14.2 31.5 14.5 L 29.699219 17.199219 L 32.699219 20.199219 L 35.400391 18.400391 C 35.800391 18.600391 36.1 18.700781 36.5 18.800781 L 37 22 L 41.099609 22 L 41.699219 18.900391 C 41.999219 18.800391 42.299219 18.7 42.699219 18.5 L 45.400391 20.300781 L 48.400391 17.300781 L 46.5 14.699219 C 46.7 14.299219 46.800391 13.899609 46.900391 13.599609 L 50 13 L 50 8.8007812 L 46.800781 8.3007812 C 46.700781 8.0007812 46.600391 7.6007812 46.400391 7.3007812 L 48.199219 4.5996094 L 45.300781 1.6992188 L 42.699219 3.5996094 C 42.399219 3.3996094 41.999219 3.2992188 41.699219 3.1992188 L 41.199219 0 L 37 0 z M 38.699219 2 L 39.5 2 L 39.900391 4.6992188 L 40.5 4.9003906 C 41.1 5.1003906 41.699219 5.2996094 42.199219 5.5996094 L 42.800781 6 L 45.099609 4.3007812 L 45.599609 4.8007812 L 44 7.0996094 L 44.300781 7.5996094 C 44.600781 8.1996094 44.8 8.8003906 45 9.4003906 L 45.199219 10 L 48 10.400391 L 48 11.199219 L 45.300781 11.800781 L 45.099609 12.400391 C 44.899609 13.000391 44.700391 13.599609 44.400391 14.099609 L 44 14.699219 L 45.699219 17 L 45.099609 17.599609 L 42.800781 16 L 42.300781 16.300781 C 41.700781 16.600781 41.1 16.8 40.5 17 L 39.900391 17.199219 L 39.400391 20 L 38.599609 20 L 38.199219 17.300781 L 37.599609 17.099609 C 36.999609 16.899609 36.400391 16.700391 35.900391 16.400391 L 35.300781 16 L 32.900391 17.599609 L 32.300781 17 L 33.900391 14.699219 L 33.599609 14.199219 C 33.299609 13.599219 33.100391 12.900391 32.900391 12.400391 L 32.699219 11.800781 L 30 11.300781 L 30 10.5 L 32.800781 10 L 32.900391 9.3007812 C 33.000391 8.8007812 33.2 8.1992188 33.5 7.6992188 L 33.900391 7.1992188 L 32.300781 4.9003906 L 32.900391 4.3007812 L 35.199219 5.9003906 L 35.699219 5.6992188 C 36.399219 5.3992188 36.999609 5.1003906 37.599609 4.9003906 L 38.199219 4.8007812 L 38.699219 2 z M 4 5 C 2.897 5 2 5.897 2 7 L 2 36 C 2 37.103 2.897 38 4 38 L 19 38 L 19 41 L 16 41 C 14.346 41 13 42.346 13 44 L 13 46 L 37 46 L 37 44 C 37 42.346 35.654 41 34 41 L 31 41 L 31 38 L 46 38 C 47.103 38 48 37.103 48 36 L 48 20.367188 C 47.388 20.956187 46.718 21.482359 46 21.943359 L 46 30 L 4 30 L 4 7 L 26.634766 7 C 26.859766 6.305 27.141609 5.638 27.474609 5 L 4 5 z M 39 6.9003906 C 36.8 6.9003906 35 8.7003906 35 10.900391 C 35 13.100391 36.8 14.900391 39 14.900391 C 41.2 14.900391 43 13.200391 43 10.900391 C 43 8.7003906 41.2 6.9003906 39 6.9003906 z M 39 9 C 40.1 9 41 9.8 41 11 C 41 12.1 40.1 13 39 13 C 37.9 13 37 12.1 37 11 C 37 9.9 37.9 9 39 9 z M 4 32 L 46 32 L 46 36 L 31 36 L 19 36 L 4 36 L 4 32 z M 41 33 L 41 35 L 43 35 L 43 33 L 41 33 z M 21 38 L 29 38 L 29 41 L 21 41 L 21 38 z M 16 43 L 19 43 L 31 43 L 34 43 C 34.551 43 35 43.449 35 44 L 15 44 C 15 43.449 15.449 43 16 43 z"/></svg>